<?xml version="1.0" standalone="no"?>
<!DOCTYPE svg PUBLIC "-//W3C//DTD SVG 20010904//EN"
 "http://www.w3.org/TR/2001/REC-SVG-20010904/DTD/svg10.dtd">
<svg version="1.0" xmlns="http://www.w3.org/2000/svg"
 width="1000.000000pt" height="1000.000000pt" viewBox="0 0 1000.000000 1000.000000"
 preserveAspectRatio="xMidYMid meet">
<metadata>
Created by potrace 1.11, written by Peter Selinger 2001-2013
</metadata>
<g transform="translate(0.000000,1000.000000) scale(0.100000,-0.100000)"
fill="#000000" stroke="none">
<path d="M4375 8589 c-608 -77 -1097 -529 -1231 -1140 -27 -120 -27 -448 0
-568 42 -192 96 -319 236 -553 308 -519 802 -1047 1530 -1639 324 -263 741
-565 813 -589 92 -29 152 4 542 295 810 605 1446 1226 1802 1760 86 129 200
326 244 421 188 407 165 903 -61 1298 -208 363 -585 631 -988 701 -283 50
-509 20 -757 -99 -204 -98 -355 -215 -582 -451 l-148 -154 -113 124 c-61 68
-162 167 -224 220 -354 305 -686 421 -1063 374z m334 -425 c36 -9 111 -37 167
-64 183 -88 339 -222 581 -497 178 -203 219 -233 319 -233 106 0 135 24 410
330 237 266 457 418 673 466 56 13 103 15 200 11 151 -6 246 -29 378 -92 222
-105 383 -266 488 -488 76 -159 89 -223 89 -432 0 -207 -14 -277 -84 -423
-234 -489 -721 -1045 -1440 -1643 -303 -251 -707 -553 -724 -541 -6 5 -91 68
-189 141 -676 500 -1245 1028 -1601 1485 -138 177 -320 470 -370 596 -157 395
-59 841 249 1129 140 131 300 213 496 256 90 19 277 19 358 -1z"/>
<path d="M2980 4414 c-131 -24 -250 -54 -443 -114 -277 -85 -386 -108 -565
-120 -188 -12 -267 -42 -362 -139 -60 -61 -104 -141 -120 -218 -7 -32 -10
-275 -8 -698 3 -647 3 -650 25 -705 46 -112 152 -219 260 -261 55 -21 82 -23
473 -35 625 -18 831 -35 957 -76 134 -43 582 -281 957 -507 65 -40 141 -83
168 -97 107 -54 95 -54 1267 -54 1198 0 1136 -3 1271 65 148 74 244 167 365
352 181 275 512 723 944 1276 306 393 296 378 322 453 63 180 16 391 -120 537
-173 184 -416 230 -636 120 -98 -49 -182 -119 -390 -323 -183 -179 -487 -455
-581 -526 l-31 -24 -79 19 c-45 11 -178 26 -312 35 -467 34 -879 95 -1093 162
-96 30 -250 126 -566 352 -289 207 -403 279 -548 348 -164 78 -315 123 -535
160 -92 15 -560 29 -620 18z m590 -434 c205 -34 400 -110 580 -225 39 -25 173
-118 298 -208 251 -179 442 -304 542 -353 209 -103 732 -195 1330 -234 235
-15 238 -16 277 -55 28 -28 33 -40 33 -80 0 -40 -5 -52 -33 -80 -40 -40 24
-34 -862 -80 -908 -48 -804 -48 -905 1 -113 54 -210 116 -483 307 -265 185
-422 282 -480 298 -81 22 -175 -13 -224 -84 -22 -31 -28 -53 -31 -106 -5 -106
33 -154 189 -241 35 -19 149 -95 253 -169 370 -260 515 -349 667 -410 144 -58
131 -57 1019 -12 502 26 833 47 878 56 216 43 376 206 420 427 15 79 12 143
-14 258 -5 22 9 37 117 130 177 151 329 290 539 495 198 193 253 232 313 221
61 -11 127 -100 111 -149 -4 -12 -62 -92 -129 -177 -426 -541 -844 -1101
-1043 -1400 -146 -218 -140 -210 -215 -261 l-59 -39 -1075 0 -1074 0 -112 68
c-419 257 -886 502 -1079 566 -166 56 -662 96 -1190 96 -174 0 -209 2 -222 16
-14 14 -16 82 -16 598 0 496 2 585 14 595 8 7 70 16 138 21 200 15 300 37 698
158 244 74 301 82 520 77 120 -3 229 -12 310 -25z"/>
</g>
</svg>
